HIERARCHY
ROOT Hips
{
	OFFSET 0.000000 0.000000 0.000000
	CHANNELS 6 Xposition Yposition Zposition Xrotation Yrotation Zrotation
	JOINT Chest
	{
		OFFSET 0.000000 0.009282 11.569106
		CHANNELS 3 Xrotation Yrotation Zrotation
		JOINT Chest2
		{
			OFFSET 0.000000 -0.016863 9.269641
			CHANNELS 3 Xrotation Yrotation Zrotation
			JOINT Chest3
			{
				OFFSET 0.000000 0.000000 8.374491
				CHANNELS 3 Xrotation Yrotation Zrotation
				JOINT Chest4
				{
					OFFSET 0.000000 0.000000 8.374493
					CHANNELS 3 Xrotation Yrotation Zrotation
					JOINT Neck
					{
						OFFSET 0.000000 -0.000001 12.152554
						CHANNELS 3 Xrotation Yrotation Zrotation
						JOINT Head
						{
							OFFSET 0.000000 -0.040100 7.802319
							CHANNELS 3 Xrotation Yrotation Zrotation
							End Site
							{
								OFFSET 0.000000 -0.020946 14.853096
							}
						}
					}
					JOINT RightCollar
					{
						OFFSET -2.894404 0.000000 6.791374
						CHANNELS 3 Xrotation Yrotation Zrotation
						JOINT RightShoulder
						{
							OFFSET -13.574684 0.000000 0.000000
							CHANNELS 3 Xrotation Yrotation Zrotation
							JOINT RightElbow
							{
								OFFSET -23.923903 0.000000 0.000000
								CHANNELS 3 Xrotation Yrotation Zrotation
								JOINT RightWrist
								{
									OFFSET -19.846718 -0.012765 0.000000
									CHANNELS 3 Xrotation Yrotation Zrotation
									End Site
									{
										OFFSET -14.973145 0.000000 0.000000
									}
								}
							}
						}
					}
					JOINT LeftCollar
					{
						OFFSET 2.894404 0.000000 6.791374
						CHANNELS 3 Xrotation Yrotation Zrotation
						JOINT LeftShoulder
						{
							OFFSET 13.574684 0.000000 0.000000
							CHANNELS 3 Xrotation Yrotation Zrotation
							JOINT LeftElbow
							{
								OFFSET 23.923903 0.000000 0.000000
								CHANNELS 3 Xrotation Yrotation Zrotation
								JOINT LeftWrist
								{
									OFFSET 19.846718 -0.012765 0.000000
									CHANNELS 3 Xrotation Yrotation Zrotation
									End Site
									{
										OFFSET 14.973145 0.000000 0.000000
									}
								}
							}
						}
					}
				}
			}
		}
	}
	JOINT RightHip
	{
		OFFSET -9.469263 -0.004642 0.045487
		CHANNELS 3 Xrotation Yrotation Zrotation
		JOINT RightKnee
		{
			OFFSET 0.000000 -0.002666 -40.478676
			CHANNELS 3 Xrotation Yrotation Zrotation
			JOINT RightAnkle
			{
				OFFSET 0.000000 -0.049110 -35.224068
				CHANNELS 3 Xrotation Yrotation Zrotation
				JOINT RightToe
				{
					OFFSET 0.000000 -12.539530 -6.151390
					CHANNELS 3 Xrotation Yrotation Zrotation
					End Site
					{
						OFFSET 0.000000 -5.044995 -1.291870
					}
				}
			}
		}
	}
	JOINT LeftHip
	{
		OFFSET 9.469263 -0.004642 0.045487
		CHANNELS 3 Xrotation Yrotation Zrotation
		JOINT LeftKnee
		{
			OFFSET 0.000000 -0.002666 -40.478676
			CHANNELS 3 Xrotation Yrotation Zrotation
			JOINT LeftAnkle
			{
				OFFSET 0.000000 -0.049110 -35.224068
				CHANNELS 3 Xrotation Yrotation Zrotation
				JOINT LeftToe
				{
					OFFSET 0.000000 -12.539530 -6.151390
					CHANNELS 3 Xrotation Yrotation Zrotation
					End Site
					{
						OFFSET 0.000000 -5.044995 -1.291870
					}
				}
			}
		}
	}
}
MOTION
Frames: 8
Frame Time: 0.016667
-19.616371 12.843940 41.218094 -3.414225 2.818384 -110.497892 7.943196 -0.038725 -1.039590 3.562973 0.081802 -0.432945 3.562973 0.081801 -0.432945 2.672175 0.063879 -0.324246 16.973128 -1.633218 -1.862492 -4.692601 -2.328326 -3.965288 -6.105104 -7.680269 -4.213186 29.800621 -37.306978 12.040684 56.082168 7.442735 65.376385 -46.417156 29.537064 86.355523 -6.505695 8.957333 -3.650308 17.034936 38.388866 2.346634 59.606815 5.602634 -65.078001 -16.988019 -28.620883 -76.257969 -61.512076 16.178406 2.491314 147.151890 3.777239 4.716813 35.285433 -11.040207 19.773437 -0.070873 0.030865 -0.061523 -49.732697 9.449594 7.052511 128.381451 -1.971548 -2.230575 33.853819 -17.200552 27.969797 -0.016313 0.001147 0.061296 
-19.526466 12.932336 41.205715 -3.620174 2.595159 -110.544296 7.854950 0.031299 -1.089426 3.519629 0.091734 -0.449082 3.519624 0.091735 -0.449077 2.639650 0.071387 -0.336292 16.910425 -1.617552 -1.855646 -4.808465 -2.300349 -3.948463 -6.140164 -7.695210 -4.211648 29.925982 -37.264091 12.084269 56.142666 7.340006 65.374862 -46.417412 29.538854 86.346698 -6.581869 8.994967 -3.660281 17.307167 38.339033 2.257621 59.700839 5.645029 -65.046904 -17.218709 -28.598743 -76.398944 -61.886698 16.089552 2.636760 147.155306 3.614572 4.744596 35.330567 -10.984738 19.585047 -0.095580 -0.003144 -0.001152 -50.076809 9.444598 7.166001 128.346426 -2.078147 -2.225597 33.974242 -17.158388 28.029973 -0.061673 0.046011 -0.021631 
-19.464573 12.997108 41.216187 -3.858443 2.343732 -110.553387 7.772312 0.103928 -1.187459 3.471145 0.102892 -0.467870 3.471146 0.102892 -0.467866 2.603285 0.079830 -0.350336 16.845757 -1.592549 -1.847185 -4.927677 -2.255887 -3.925433 -6.309459 -7.748437 -4.186130 30.090952 -37.199328 12.037458 56.250095 7.226220 65.372383 -46.402745 29.541494 86.333427 -6.701160 9.033931 -3.647871 17.588166 38.314455 2.221628 59.810710 5.663346 -65.020682 -17.451197 -28.573502 -76.538594 -62.317656 16.028349 2.812225 147.160947 3.399296 4.778288 35.367662 -10.922917 19.359987 -0.100979 -0.035793 0.053800 -50.438908 9.520074 7.334011 128.248891 -2.204781 -2.202612 34.160050 -17.083515 28.142165 -0.127633 0.087845 -0.099428 
-19.389740 13.059927 41.255531 -4.091019 2.031804 -110.577450 7.679323 0.143313 -1.274753 3.419263 0.112963 -0.488198 3.419268 0.112959 -0.488204 2.564357 0.087453 -0.365538 16.779002 -1.556891 -1.835476 -5.050345 -2.193110 -3.892702 -6.494368 -7.806758 -4.139650 30.232173 -37.166017 11.940412 56.393693 7.131035 65.355007 -46.396259 29.540172 86.334274 -6.811340 9.070149 -3.636686 17.804235 38.327743 2.258743 59.926208 5.669933 -64.991955 -17.641890 -28.553570 -76.653656 -62.799484 15.963592 2.947356 147.166534 3.210542 4.806128 35.383327 -10.825369 19.022254 -0.116438 -0.107583 0.184002 -50.837340 9.570065 7.549235 128.107274 -2.360501 -2.171410 34.406661 -17.014443 28.351933 -0.211500 0.152272 -0.219940 
-19.333437 13.109488 41.325855 -4.323403 1.678784 -110.587969 7.593377 0.163079 -1.377313 3.366539 0.119938 -0.504895 3.366543 0.119938 -0.504893 2.524807 0.092737 -0.378023 16.701547 -1.513728 -1.826727 -5.192645 -2.115319 -3.862823 -6.615110 -7.846658 -4.079241 30.344085 -37.189929 11.846865 56.524866 7.049105 65.310371 -46.389426 29.515877 86.336911 -6.896998 9.102554 -3.640700 17.961326 38.372197 2.345466 60.038640 5.663769 -64.961028 -17.771800 -28.536349 -76.724690 -63.317117 15.893693 3.070158 147.176083 2.994133 4.848371 35.324270 -10.722610 18.601798 -0.085479 -0.191871 0.337298 -51.245096 9.612793 7.770076 127.920414 -2.514758 -2.130762 34.676922 -16.977571 28.593399 -0.292663 0.220169 -0.342403 
-19.283735 13.151982 41.426991 -4.575987 1.270414 -110.654624 7.487581 0.187387 -1.424017 3.314614 0.124150 -0.516487 3.314612 0.124150 -0.516480 2.485852 0.095919 -0.386704 16.605172 -1.468902 -1.820673 -5.369999 -2.033086 -3.837507 -6.620014 -7.878537 -3.981547 30.413319 -37.251346 11.751126 56.591594 6.984364 65.268967 -46.373102 29.480760 86.322895 -6.981787 9.133000 -3.643306 18.126098 38.419954 2.426190 60.135062 5.651924 -64.939082 -17.884048 -28.511021 -76.766709 -63.872528 15.797650 3.156339 147.163324 2.833192 4.864689 35.213313 -10.637483 18.156004 -0.029810 -0.271805 0.483894 -51.679954 9.608881 8.009966 127.694116 -2.656818 -2.112268 34.897923 -16.957020 28.820700 -0.319588 0.275528 -0.441471 
-19.258766 13.187761 41.555927 -4.841852 0.842277 -110.742549 7.392253 0.212609 -1.457029 3.264766 0.127248 -0.520447 3.264763 0.127251 -0.520446 2.448463 0.098222 -0.389662 16.481673 -1.427668 -1.818867 -5.597848 -1.955135 -3.821493 -6.573587 -7.908560 -3.873414 30.478804 -37.290073 11.640019 56.602522 6.942691 65.265552 -46.340839 29.440554 86.285247 -7.063695 9.164140 -3.635226 18.282635 38.463865 2.489817 60.243109 5.622719 -64.934410 -18.018469 -28.483475 -76.799760 -64.439946 15.700373 3.273307 147.137356 2.681876 4.913815 35.063985 -10.564435 17.705133 0.038948 -0.343734 0.617461 -52.085411 9.609461 8.244145 127.421004 -2.780715 -2.107060 35.124685 -16.934797 29.067523 -0.350556 0.330347 -0.541185 
-19.244938 13.218591 41.705521 -5.162161 0.344547 -110.927101 7.246520 0.263805 -1.414689 3.212154 0.131734 -0.515280 3.212158 0.131733 -0.515280 2.409008 0.101510 -0.385778 16.334700 -1.396005 -1.818227 -5.869672 -1.893562 -3.811272 -6.582894 -7.949425 -3.765573 30.559363 -37.276198 11.466722 56.623918 6.889924 65.300939 -46.292181 29.417785 86.236992 -7.201942 9.217511 -3.605919 18.489652 38.503860 2.537321 60.346272 5.608843 -64.931924 -18.147066 -28.463174 -76.840202 -65.085931 15.554170 3.492300 147.088042 2.531645 5.017672 34.904958 -10.524783 17.309989 0.108581 -0.380395 0.683207 -52.542528 9.524500 8.458009 127.120954 -2.820209 -2.181295 35.262043 -16.953032 29.249349 -0.299695 0.353541 -0.572682 
